<?xml version="1.0" standalone="no"?>
<!DOCTYPE svg PUBLIC "-//W3C//DTD SVG 20010904//EN"
 "http://www.w3.org/TR/2001/REC-SVG-20010904/DTD/svg10.dtd">
<svg version="1.0" xmlns="http://www.w3.org/2000/svg"
 width="1181.000000pt" height="1181.000000pt" viewBox="0 0 1181.000000 1181.000000"
 preserveAspectRatio="xMidYMid meet">

<g transform="translate(0.000000,1181.000000) scale(0.100000,-0.100000)"
fill="#000000" stroke="none">
<path d="M5151 9043 c-476 -966 -1161 -2596 -1761 -4188 -258 -685 -930 -2553
-930 -2586 0 -5 309 -9 794 -9 l795 0 71 223 c62 191 370 1091 417 1215 l16
42 1327 0 1328 0 10 -27 c234 -671 375 -1080 428 -1245 l67 -208 818 0 c505 0
819 4 819 9 0 6 -11 40 -24 78 -14 37 -95 268 -181 513 -648 1841 -1269 3445
-1849 4772 -255 585 -634 1417 -658 1445 -8 10 -159 13 -737 13 l-727 0 -23
-47z m747 -1575 c503 -1289 527 -1350 793 -2082 82 -225 149 -413 149 -417 0
-5 -434 -9 -965 -9 -531 0 -965 2 -965 5 0 31 332 920 730 1955 81 212 165
433 186 492 22 60 42 108 45 108 3 0 15 -24 27 -52z"/>
</g>
    <style>
        path { fill: #000; }
        @media (prefers-color-scheme: dark) {
            path { fill: #FFF; }
        }
    </style>
</svg>